<svg xmlns="http://www.w3.org/2000/svg" viewBox="0 0 502.07 94.74"><defs><style>.cls-1{fill:#fff;}</style></defs><g id="Layer_2" data-name="Layer 2"><g id="Layer_1-2" data-name="Layer 1"><path class="cls-1" d="M41,0,0,23.69V71.06L41,94.74l41-23.68V23.69ZM67.2,45.79a8,8,0,0,1-8-8,8.08,8.08,0,0,1,.12-1.31l-18-10.34L27,34.59,71.85,60.45l-31,16.9L11.45,60V50.62L40.92,67.87l14.42-8.2L11.53,34.53,41.22,17.39,64.05,30.51a8.06,8.06,0,0,1,3.15-.65,8,8,0,1,1,0,15.93Z"/><path class="cls-1" d="M95.61,69.12l7.8-9.34c5.39,4.45,11,7.28,17.89,7.28,5.4,0,8.65-2.14,8.65-5.65v-.17c0-3.34-2-5.06-12.07-7.63C105.8,50.53,98,47.19,98,35.29v-.17c0-10.88,8.74-18.07,21-18.07a34.71,34.71,0,0,1,22.27,7.62l-6.85,9.93c-5.31-3.68-10.54-5.91-15.59-5.91s-7.71,2.32-7.71,5.23v.17c0,3.94,2.57,5.22,12.94,7.88,12.16,3.17,19,7.53,19,18v.17c0,11.91-9.08,18.59-22,18.59A38.18,38.18,0,0,1,95.61,69.12Z"/><path class="cls-1" d="M147.68,61.67V32h13v25.6c0,6.17,2.91,9.34,7.88,9.34s8.14-3.17,8.14-9.34V32h13v45.9h-13V71.34c-3,3.86-6.85,7.37-13.45,7.37C153.42,78.71,147.68,72.2,147.68,61.67Z"/><path class="cls-1" d="M196.24,32h13v6.59c3.17-4.28,7.54-7.45,14.3-7.45,10.71,0,20.9,8.39,20.9,23.72V55c0,15.33-10,23.72-20.9,23.72a17.64,17.64,0,0,1-14.3-6.85V91.55h-13Zm35.2,23v-.18c0-7.62-5.14-12.67-11.22-12.67s-11.13,5-11.13,12.67V55c0,7.62,5,12.67,11.13,12.67S231.44,62.69,231.44,55Z"/><path class="cls-1" d="M246.69,55.16V55c0-13.11,9.33-23.9,22.69-23.9,15.33,0,22.35,11.91,22.35,24.92,0,1-.08,2.23-.17,3.43H259.62c1.28,5.91,5.39,9,11.22,9,4.37,0,7.53-1.37,11.13-4.71l7.45,6.6c-4.28,5.3-10.45,8.56-18.75,8.56C256.88,78.88,246.69,69.2,246.69,55.16Zm32.37-3.86c-.77-5.82-4.2-9.76-9.68-9.76s-8.9,3.85-9.93,9.76Z"/><path class="cls-1" d="M296.27,32h13V41.2c2.66-6.34,6.94-10.45,14.65-10.11V44.71h-.69c-8.65,0-14,5.22-14,16.18v17h-13Z"/><path class="cls-1" d="M328.31,32h13.18l7.37,27.83,8.65-28h11.22l8.73,28.09L385,32h12.93l-14.3,46.24H371.9L363.08,50l-9,28.17H342.44Z"/><rect class="cls-1" x="401.27" y="31.95" width="13.02" height="45.9"/><path class="cls-1" d="M417.8,71.77l5.57-8.56c5,3.59,10.19,5.48,14.47,5.48,3.77,0,5.48-1.37,5.48-3.43v-.17c0-2.83-4.45-3.77-9.5-5.31-6.43-1.88-13.7-4.88-13.7-13.79v-.17c0-9.33,7.53-14.56,16.78-14.56A31.79,31.79,0,0,1,454,36.57l-5,9c-4.54-2.66-9.08-4.29-12.42-4.29-3.16,0-4.79,1.37-4.79,3.17v.17c0,2.57,4.37,3.77,9.33,5.48,6.43,2.14,13.88,5.23,13.88,13.62v.17c0,10.19-7.63,14.82-17.56,14.82A32.15,32.15,0,0,1,417.8,71.77Z"/><path class="cls-1" d="M457,55.16V55c0-13.11,9.33-23.9,22.69-23.9,15.33,0,22.35,11.91,22.35,24.92,0,1-.08,2.23-.17,3.43H470c1.28,5.91,5.39,9,11.22,9,4.37,0,7.53-1.37,11.13-4.71l7.45,6.6c-4.28,5.3-10.45,8.56-18.75,8.56C467.22,78.88,457,69.2,457,55.16ZM489.4,51.3c-.77-5.82-4.2-9.76-9.68-9.76s-8.9,3.85-9.93,9.76Z"/><circle class="cls-1" cx="407.78" cy="21.84" r="6.51"/></g></g></svg>